<svg width="44" height="44" viewBox="0 0 44 44" fill="none" xmlns="http://www.w3.org/2000/svg">
<path d="M8.34167 32.7167C10.1833 31.3083 12.2417 30.1979 14.5167 29.3854C16.7917 28.5729 19.175 28.1667 21.6667 28.1667C24.1583 28.1667 26.5417 28.5729 28.8167 29.3854C31.0917 30.1979 33.15 31.3083 34.9917 32.7167C36.2556 31.2361 37.2396 29.5569 37.9437 27.6792C38.6479 25.8014 39 23.7972 39 21.6667C39 16.8639 37.3118 12.7743 33.9354 9.39792C30.559 6.02153 26.4694 4.33333 21.6667 4.33333C16.8639 4.33333 12.7743 6.02153 9.39792 9.39792C6.02153 12.7743 4.33333 16.8639 4.33333 21.6667C4.33333 23.7972 4.68542 25.8014 5.38958 27.6792C6.09375 29.5569 7.07778 31.2361 8.34167 32.7167ZM21.6667 23.8333C19.5361 23.8333 17.7396 23.1021 16.2771 21.6396C14.8146 20.1771 14.0833 18.3806 14.0833 16.25C14.0833 14.1194 14.8146 12.3229 16.2771 10.8604C17.7396 9.39792 19.5361 8.66667 21.6667 8.66667C23.7972 8.66667 25.5937 9.39792 27.0562 10.8604C28.5187 12.3229 29.25 14.1194 29.25 16.25C29.25 18.3806 28.5187 20.1771 27.0562 21.6396C25.5937 23.1021 23.7972 23.8333 21.6667 23.8333ZM21.6667 43.3333C18.6694 43.3333 15.8528 42.7646 13.2167 41.6271C10.5806 40.4896 8.2875 38.9458 6.3375 36.9958C4.3875 35.0458 2.84375 32.7528 1.70625 30.1167C0.56875 27.4806 0 24.6639 0 21.6667C0 18.6694 0.56875 15.8528 1.70625 13.2167C2.84375 10.5806 4.3875 8.2875 6.3375 6.3375C8.2875 4.3875 10.5806 2.84375 13.2167 1.70625C15.8528 0.56875 18.6694 0 21.6667 0C24.6639 0 27.4806 0.56875 30.1167 1.70625C32.7528 2.84375 35.0458 4.3875 36.9958 6.3375C38.9458 8.2875 40.4896 10.5806 41.6271 13.2167C42.7646 15.8528 43.3333 18.6694 43.3333 21.6667C43.3333 24.6639 42.7646 27.4806 41.6271 30.1167C40.4896 32.7528 38.9458 35.0458 36.9958 36.9958C35.0458 38.9458 32.7528 40.4896 30.1167 41.6271C27.4806 42.7646 24.6639 43.3333 21.6667 43.3333ZM21.6667 39C23.5806 39 25.3861 38.7201 27.0833 38.1604C28.7806 37.6007 30.3333 36.7972 31.7417 35.75C30.3333 34.7028 28.7806 33.8993 27.0833 33.3396C25.3861 32.7799 23.5806 32.5 21.6667 32.5C19.7528 32.5 17.9472 32.7799 16.25 33.3396C14.5528 33.8993 13 34.7028 11.5917 35.75C13 36.7972 14.5528 37.6007 16.25 38.1604C17.9472 38.7201 19.7528 39 21.6667 39ZM21.6667 19.5C22.6056 19.5 23.3819 19.1931 23.9958 18.5792C24.6097 17.9653 24.9167 17.1889 24.9167 16.25C24.9167 15.3111 24.6097 14.5347 23.9958 13.9208C23.3819 13.3069 22.6056 13 21.6667 13C20.7278 13 19.9514 13.3069 19.3375 13.9208C18.7236 14.5347 18.4167 15.3111 18.4167 16.25C18.4167 17.1889 18.7236 17.9653 19.3375 18.5792C19.9514 19.1931 20.7278 19.5 21.6667 19.5Z" fill="#535353"/>
</svg>
