<svg width="43" height="34" viewBox="0 0 43 34" fill="none" xmlns="http://www.w3.org/2000/svg">
<path d="M42.5 4.25V29.75C42.5 30.9188 42.0839 31.9193 41.2516 32.7516C40.4193 33.5839 39.4188 34 38.25 34H4.25C3.08125 34 2.08073 33.5839 1.24844 32.7516C0.416146 31.9193 0 30.9188 0 29.75V4.25C0 3.08125 0.416146 2.08073 1.24844 1.24844C2.08073 0.416146 3.08125 0 4.25 0H38.25C39.4188 0 40.4193 0.416146 41.2516 1.24844C42.0839 2.08073 42.5 3.08125 42.5 4.25ZM4.25 8.5H38.25V4.25H4.25V8.5ZM4.25 17V29.75H38.25V17H4.25Z" fill="#535353"/>
</svg>
