<svg width="52" height="26" viewBox="0 0 52 26" fill="none" xmlns="http://www.w3.org/2000/svg">
<path d="M0 26V22.5875C0 21.0347 0.794444 19.7708 2.38333 18.7958C3.97222 17.8208 6.06667 17.3333 8.66667 17.3333C9.13611 17.3333 9.5875 17.3424 10.0208 17.3604C10.4542 17.3785 10.8694 17.4236 11.2667 17.4958C10.7611 18.2542 10.3819 19.0486 10.1292 19.8792C9.87639 20.7097 9.75 21.5764 9.75 22.4792V26H0ZM13 26V22.4792C13 21.3236 13.316 20.2674 13.9479 19.3104C14.5799 18.3535 15.4736 17.5139 16.6292 16.7917C17.7847 16.0694 19.166 15.5278 20.7729 15.1667C22.3799 14.8056 24.1222 14.625 26 14.625C27.9139 14.625 29.6743 14.8056 31.2812 15.1667C32.8882 15.5278 34.2694 16.0694 35.425 16.7917C36.5806 17.5139 37.4653 18.3535 38.0792 19.3104C38.6931 20.2674 39 21.3236 39 22.4792V26H13ZM42.25 26V22.4792C42.25 21.5403 42.1326 20.6556 41.8979 19.825C41.6632 18.9944 41.3111 18.2181 40.8417 17.4958C41.2389 17.4236 41.6451 17.3785 42.0604 17.3604C42.4757 17.3424 42.9 17.3333 43.3333 17.3333C45.9333 17.3333 48.0278 17.8118 49.6167 18.7687C51.2056 19.7257 52 20.9986 52 22.5875V26H42.25ZM17.6042 21.6667H34.45C34.0889 20.9444 33.0868 20.3125 31.4438 19.7708C29.8007 19.2292 27.9861 18.9583 26 18.9583C24.0139 18.9583 22.1993 19.2292 20.5562 19.7708C18.9132 20.3125 17.9292 20.9444 17.6042 21.6667ZM8.66667 15.1667C7.475 15.1667 6.45486 14.7424 5.60625 13.8938C4.75764 13.0451 4.33333 12.025 4.33333 10.8333C4.33333 9.60556 4.75764 8.57639 5.60625 7.74583C6.45486 6.91528 7.475 6.5 8.66667 6.5C9.89444 6.5 10.9236 6.91528 11.7542 7.74583C12.5847 8.57639 13 9.60556 13 10.8333C13 12.025 12.5847 13.0451 11.7542 13.8938C10.9236 14.7424 9.89444 15.1667 8.66667 15.1667ZM43.3333 15.1667C42.1417 15.1667 41.1215 14.7424 40.2729 13.8938C39.4243 13.0451 39 12.025 39 10.8333C39 9.60556 39.4243 8.57639 40.2729 7.74583C41.1215 6.91528 42.1417 6.5 43.3333 6.5C44.5611 6.5 45.5903 6.91528 46.4208 7.74583C47.2514 8.57639 47.6667 9.60556 47.6667 10.8333C47.6667 12.025 47.2514 13.0451 46.4208 13.8938C45.5903 14.7424 44.5611 15.1667 43.3333 15.1667ZM26 13C24.1944 13 22.6597 12.3681 21.3958 11.1042C20.1319 9.84028 19.5 8.30556 19.5 6.5C19.5 4.65833 20.1319 3.11458 21.3958 1.86875C22.6597 0.622917 24.1944 0 26 0C27.8417 0 29.3854 0.622917 30.6313 1.86875C31.8771 3.11458 32.5 4.65833 32.5 6.5C32.5 8.30556 31.8771 9.84028 30.6313 11.1042C29.3854 12.3681 27.8417 13 26 13ZM26 8.66667C26.6139 8.66667 27.1285 8.45903 27.5438 8.04375C27.959 7.62847 28.1667 7.11389 28.1667 6.5C28.1667 5.88611 27.959 5.37153 27.5438 4.95625C27.1285 4.54097 26.6139 4.33333 26 4.33333C25.3861 4.33333 24.8715 4.54097 24.4563 4.95625C24.041 5.37153 23.8333 5.88611 23.8333 6.5C23.8333 7.11389 24.041 7.62847 24.4563 8.04375C24.8715 8.45903 25.3861 8.66667 26 8.66667Z" fill="#535353"/>
</svg>
