<svg width="43" height="43" viewBox="0 0 43 43" fill="none" xmlns="http://www.w3.org/2000/svg">
<path d="M4.77778 38.2222H8.18194L31.5333 14.8708L28.1292 11.4667L4.77778 34.8181V38.2222ZM0 43V32.8472L31.5333 1.37361C32.0111 0.935648 32.5387 0.597222 33.116 0.358333C33.6933 0.119444 34.3005 0 34.9375 0C35.5745 0 36.1917 0.119444 36.7889 0.358333C37.3861 0.597222 37.9037 0.955556 38.3417 1.43333L41.6264 4.77778C42.1042 5.21574 42.4525 5.73333 42.6715 6.33056C42.8905 6.92778 43 7.525 43 8.12222C43 8.75926 42.8905 9.36644 42.6715 9.94375C42.4525 10.5211 42.1042 11.0486 41.6264 11.5264L10.1528 43H0ZM29.8014 13.1986L28.1292 11.4667L31.5333 14.8708L29.8014 13.1986Z" fill="black"/>
</svg>
