<svg width="39" height="39" viewBox="0 0 39 39" fill="none" xmlns="http://www.w3.org/2000/svg">
<path d="M19.5 39C14.5167 39 10.1743 37.3479 6.47292 34.0438C2.77153 30.7396 0.65 26.6139 0.108333 21.6667H4.55C5.05556 25.4222 6.72569 28.5278 9.56042 30.9833C12.3951 33.4389 15.7083 34.6667 19.5 34.6667C23.725 34.6667 27.309 33.1951 30.2521 30.2521C33.1951 27.309 34.6667 23.725 34.6667 19.5C34.6667 15.275 33.1951 11.691 30.2521 8.74792C27.309 5.80486 23.725 4.33333 19.5 4.33333C17.0083 4.33333 14.6792 4.91111 12.5125 6.06667C10.3458 7.22222 8.52222 8.81111 7.04167 10.8333H13V15.1667H0V2.16667H4.33333V7.25833C6.175 4.94722 8.42292 3.15972 11.0771 1.89583C13.7312 0.631944 16.5389 0 19.5 0C22.2083 0 24.7451 0.514583 27.1104 1.54375C29.4757 2.57292 31.534 3.96319 33.2854 5.71458C35.0368 7.46597 36.4271 9.52431 37.4562 11.8896C38.4854 14.2549 39 16.7917 39 19.5C39 22.2083 38.4854 24.7451 37.4562 27.1104C36.4271 29.4757 35.0368 31.534 33.2854 33.2854C31.534 35.0368 29.4757 36.4271 27.1104 37.4562C24.7451 38.4854 22.2083 39 19.5 39ZM25.5667 28.6L17.3333 20.3667V8.66667H21.6667V18.6333L28.6 25.5667L25.5667 28.6Z" fill="#535353"/>
</svg>
