<svg width="431" height="240" viewBox="0 0 431 240" fill="none" xmlns="http://www.w3.org/2000/svg">
<g filter="url(#filter0_d_25_260)">
<rect x="9" y="9" width="401" height="210" rx="37" fill="#FEFEFE"/>
</g>
<path d="M45.697 64.493V44.893H48.917V64.493H45.697ZM61.9538 64.493V56.737C61.9538 55.841 61.6645 55.1037 61.0858 54.525C60.5258 53.9464 59.7978 53.657 58.9018 53.657C58.3045 53.657 57.7725 53.7877 57.3058 54.049C56.8391 54.3104 56.4751 54.6744 56.2138 55.141C55.9525 55.6077 55.8218 56.1397 55.8218 56.737L54.6178 56.065C54.6178 55.0384 54.8418 54.133 55.2898 53.349C55.7378 52.5464 56.3538 51.921 57.1378 51.473C57.9405 51.0064 58.8365 50.773 59.8258 50.773C60.8338 50.773 61.7298 51.0344 62.5138 51.557C63.2978 52.061 63.9138 52.7237 64.3618 53.545C64.8098 54.3477 65.0338 55.1877 65.0338 56.065V64.493H61.9538ZM52.7418 64.493V51.053H55.8218V64.493H52.7418ZM74.3517 64.773C73.0264 64.773 71.8224 64.465 70.7397 63.849C69.6757 63.233 68.8357 62.393 68.2197 61.329C67.6037 60.265 67.2957 59.0797 67.2957 57.773C67.2957 56.4477 67.6037 55.2624 68.2197 54.217C68.8357 53.153 69.6757 52.313 70.7397 51.697C71.8224 51.081 73.0264 50.773 74.3517 50.773C75.397 50.773 76.3677 50.9784 77.2637 51.389C78.1784 51.781 78.953 52.3504 79.5877 53.097L77.5717 55.141C77.1797 54.6744 76.7037 54.329 76.1437 54.105C75.6024 53.8624 75.005 53.741 74.3517 53.741C73.5864 53.741 72.905 53.9184 72.3077 54.273C71.729 54.609 71.2717 55.0757 70.9357 55.673C70.6184 56.2704 70.4597 56.9704 70.4597 57.773C70.4597 58.557 70.6184 59.257 70.9357 59.873C71.2717 60.4704 71.729 60.9464 72.3077 61.301C72.905 61.637 73.5864 61.805 74.3517 61.805C75.005 61.805 75.6024 61.693 76.1437 61.469C76.7037 61.2264 77.1797 60.8717 77.5717 60.405L79.5877 62.449C78.953 63.1957 78.1784 63.7744 77.2637 64.185C76.3677 64.577 75.397 64.773 74.3517 64.773ZM87.6948 64.773C86.3881 64.773 85.2028 64.465 84.1388 63.849C83.0748 63.2144 82.2254 62.365 81.5908 61.301C80.9748 60.237 80.6668 59.0517 80.6668 57.745C80.6668 56.4384 80.9748 55.2624 81.5908 54.217C82.2254 53.1717 83.0748 52.341 84.1388 51.725C85.2028 51.0904 86.3881 50.773 87.6948 50.773C89.0201 50.773 90.2148 51.081 91.2788 51.697C92.3428 52.313 93.1828 53.153 93.7988 54.217C94.4334 55.2624 94.7508 56.4384 94.7508 57.745C94.7508 59.0517 94.4334 60.237 93.7988 61.301C93.1828 62.365 92.3428 63.2144 91.2788 63.849C90.2148 64.465 89.0201 64.773 87.6948 64.773ZM87.6948 61.805C88.4601 61.805 89.1321 61.637 89.7108 61.301C90.3081 60.9464 90.7654 60.461 91.0828 59.845C91.4188 59.229 91.5868 58.529 91.5868 57.745C91.5868 56.961 91.4188 56.2704 91.0828 55.673C90.7468 55.0757 90.2894 54.609 89.7108 54.273C89.1321 53.9184 88.4601 53.741 87.6948 53.741C86.9481 53.741 86.2761 53.9184 85.6788 54.273C85.1001 54.609 84.6428 55.0757 84.3068 55.673C83.9894 56.2704 83.8308 56.961 83.8308 57.745C83.8308 58.529 83.9894 59.229 84.3068 59.845C84.6428 60.461 85.1001 60.9464 85.6788 61.301C86.2761 61.637 86.9481 61.805 87.6948 61.805ZM97.3121 64.493V51.053H100.392V64.493H97.3121ZM106.244 64.493V56.485C106.244 55.589 105.964 54.8984 105.404 54.413C104.844 53.909 104.153 53.657 103.332 53.657C102.772 53.657 102.268 53.769 101.82 53.993C101.391 54.217 101.045 54.5437 100.784 54.973C100.523 55.3837 100.392 55.8877 100.392 56.485L99.1881 55.813C99.1881 54.7864 99.4121 53.8997 99.8601 53.153C100.308 52.4064 100.915 51.8277 101.68 51.417C102.445 50.9877 103.304 50.773 104.256 50.773C105.208 50.773 106.067 50.9784 106.832 51.389C107.597 51.7997 108.204 52.3784 108.652 53.125C109.1 53.8717 109.324 54.7677 109.324 55.813V64.493H106.244ZM115.176 64.493V56.485C115.176 55.589 114.896 54.8984 114.336 54.413C113.776 53.909 113.085 53.657 112.264 53.657C111.723 53.657 111.228 53.769 110.78 53.993C110.332 54.217 109.977 54.5437 109.716 54.973C109.455 55.3837 109.324 55.8877 109.324 56.485L107.588 55.813C107.681 54.7864 107.98 53.8997 108.484 53.153C108.988 52.4064 109.632 51.8277 110.416 51.417C111.219 50.9877 112.096 50.773 113.048 50.773C114.019 50.773 114.896 50.9784 115.68 51.389C116.464 51.7997 117.089 52.3784 117.556 53.125C118.023 53.8717 118.256 54.7677 118.256 55.813V64.493H115.176ZM127.673 64.773C126.329 64.773 125.116 64.4744 124.033 63.877C122.969 63.261 122.12 62.421 121.485 61.357C120.869 60.293 120.561 59.0984 120.561 57.773C120.561 56.4477 120.869 55.2624 121.485 54.217C122.101 53.153 122.932 52.313 123.977 51.697C125.041 51.081 126.217 50.773 127.505 50.773C128.756 50.773 129.857 51.0624 130.809 51.641C131.78 52.2197 132.536 53.013 133.077 54.021C133.637 55.029 133.917 56.177 133.917 57.465C133.917 57.689 133.899 57.9224 133.861 58.165C133.843 58.389 133.805 58.641 133.749 58.921H122.717V56.401H132.153L131.005 57.409C130.968 56.5877 130.809 55.897 130.529 55.337C130.249 54.777 129.848 54.3477 129.325 54.049C128.821 53.7504 128.196 53.601 127.449 53.601C126.665 53.601 125.984 53.769 125.405 54.105C124.827 54.441 124.379 54.917 124.061 55.533C123.744 56.1304 123.585 56.849 123.585 57.689C123.585 58.529 123.753 59.2664 124.089 59.901C124.425 60.5357 124.901 61.0304 125.517 61.385C126.133 61.721 126.843 61.889 127.645 61.889C128.336 61.889 128.971 61.7677 129.549 61.525C130.147 61.2824 130.651 60.9277 131.061 60.461L133.021 62.449C132.368 63.2144 131.575 63.793 130.641 64.185C129.708 64.577 128.719 64.773 127.673 64.773Z" fill="black"/>
<path d="M11.1606 200.471L130.856 133.067H180.116L257.464 82.8491H297.651L393.148 14.6394" stroke="#27F813" stroke-opacity="0.7" stroke-width="5"/>
<path d="M54.889 108.481C52.8623 108.481 51.089 108.081 49.569 107.281C48.0756 106.481 46.7156 105.307 45.489 103.761L48.569 100.681C49.3423 101.801 50.249 102.707 51.289 103.401C52.329 104.094 53.5823 104.441 55.049 104.441C56.5956 104.441 57.8223 104.107 58.729 103.441C59.6623 102.774 60.129 101.827 60.129 100.601C60.129 99.6675 59.889 98.9075 59.409 98.3208C58.929 97.7341 58.289 97.2541 57.489 96.8808C56.7156 96.4808 55.849 96.1341 54.889 95.8408C53.9556 95.5208 53.009 95.1741 52.049 94.8008C51.1156 94.4008 50.249 93.9075 49.449 93.3208C48.6756 92.7341 48.049 91.9741 47.569 91.0408C47.089 90.1075 46.849 88.9208 46.849 87.4808C46.849 85.8275 47.249 84.4275 48.049 83.2808C48.8756 82.1075 49.9823 81.2141 51.369 80.6008C52.7556 79.9875 54.3023 79.6808 56.009 79.6808C57.6623 79.6808 59.1956 80.0408 60.609 80.7608C62.0223 81.4808 63.1823 82.4008 64.089 83.5208L61.009 86.6008C60.209 85.6941 59.3823 84.9875 58.529 84.4808C57.7023 83.9741 56.8223 83.7208 55.889 83.7208C54.3956 83.7208 53.249 84.0141 52.449 84.6008C51.649 85.1608 51.249 86.0141 51.249 87.1608C51.249 88.0141 51.489 88.7075 51.969 89.2408C52.4756 89.7475 53.129 90.1875 53.929 90.5608C54.729 90.9075 55.5956 91.2408 56.529 91.5608C57.489 91.8808 58.449 92.2408 59.409 92.6408C60.369 93.0408 61.249 93.5608 62.049 94.2008C62.849 94.8141 63.489 95.6141 63.969 96.6008C64.4756 97.5875 64.729 98.8275 64.729 100.321C64.729 102.827 63.8356 104.814 62.049 106.281C60.289 107.747 57.9023 108.481 54.889 108.481ZM54.249 112.081V76.0808H57.449V112.081H54.249ZM72.4083 108.081L80.6083 96.6008L82.2483 95.6008C81.9817 96.1875 81.635 96.7075 81.2083 97.1608C80.8083 97.6141 80.275 97.9608 79.6083 98.2008C78.9417 98.4408 78.0883 98.5608 77.0483 98.5608C75.4483 98.5608 73.9817 98.1875 72.6483 97.4408C71.315 96.6675 70.2483 95.6008 69.4483 94.2408C68.6483 92.8808 68.2483 91.3075 68.2483 89.5208C68.2483 87.7075 68.6883 86.0541 69.5683 84.5608C70.475 83.0675 71.675 81.8808 73.1683 81.0008C74.6617 80.1208 76.3283 79.6808 78.1683 79.6808C80.035 79.6808 81.715 80.1208 83.2083 81.0008C84.7017 81.8541 85.875 83.0141 86.7283 84.4808C87.6083 85.9208 88.0483 87.5475 88.0483 89.3608C88.0483 91.9208 87.155 94.5075 85.3683 97.1208L77.7283 108.081H72.4083ZM78.1683 94.9608C79.1817 94.9608 80.0883 94.7208 80.8883 94.2408C81.6883 93.7608 82.315 93.1075 82.7683 92.2808C83.2217 91.4541 83.4483 90.5341 83.4483 89.5208C83.4483 88.4541 83.2217 87.5075 82.7683 86.6808C82.315 85.8541 81.6883 85.2008 80.8883 84.7208C80.0883 84.2408 79.1817 84.0008 78.1683 84.0008C77.155 84.0008 76.2483 84.2408 75.4483 84.7208C74.6483 85.2008 74.0083 85.8541 73.5283 86.6808C73.075 87.5075 72.8483 88.4541 72.8483 89.5208C72.8483 90.5608 73.075 91.4941 73.5283 92.3208C74.0083 93.1208 74.6483 93.7608 75.4483 94.2408C76.275 94.7208 77.1817 94.9608 78.1683 94.9608ZM93.2965 108.081L103.496 82.8808H108.056L98.0965 108.081H93.2965ZM89.2965 84.2008V80.0808H108.056V82.8808L106.096 84.2008H89.2965ZM121.69 108.481C119.583 108.481 117.65 107.894 115.89 106.721C114.157 105.521 112.77 103.841 111.73 101.681C110.69 99.5208 110.17 96.9741 110.17 94.0408C110.17 91.1075 110.677 88.5741 111.69 86.4408C112.73 84.2808 114.117 82.6141 115.85 81.4408C117.583 80.2675 119.503 79.6808 121.61 79.6808C123.743 79.6808 125.677 80.2675 127.41 81.4408C129.143 82.6141 130.517 84.2808 131.53 86.4408C132.57 88.5741 133.09 91.1208 133.09 94.0808C133.09 97.0141 132.57 99.5608 131.53 101.721C130.517 103.881 129.143 105.547 127.41 106.721C125.703 107.894 123.797 108.481 121.69 108.481ZM121.61 104.161C122.997 104.161 124.197 103.787 125.21 103.041C126.223 102.294 127.01 101.174 127.57 99.6808C128.157 98.1875 128.45 96.3075 128.45 94.0408C128.45 91.8008 128.157 89.9341 127.57 88.4408C127.01 86.9475 126.21 85.8408 125.17 85.1208C124.157 84.3741 122.97 84.0008 121.61 84.0008C120.25 84.0008 119.05 84.3741 118.01 85.1208C116.997 85.8408 116.21 86.9475 115.65 88.4408C115.09 89.9075 114.81 91.7741 114.81 94.0408C114.81 96.3075 115.09 98.1875 115.65 99.6808C116.21 101.174 116.997 102.294 118.01 103.041C119.05 103.787 120.25 104.161 121.61 104.161ZM139.564 108.481C138.711 108.481 138.004 108.201 137.444 107.641C136.911 107.054 136.644 106.347 136.644 105.521C136.644 104.667 136.911 103.961 137.444 103.401C138.004 102.841 138.711 102.561 139.564 102.561C140.418 102.561 141.111 102.841 141.644 103.401C142.204 103.961 142.484 104.667 142.484 105.521C142.484 106.347 142.204 107.054 141.644 107.641C141.111 108.201 140.418 108.481 139.564 108.481ZM148.14 108.081L158.34 82.8808H162.9L152.94 108.081H148.14ZM144.14 84.2008V80.0808H162.9V82.8808L160.94 84.2008H144.14ZM173.95 108.481C172.083 108.481 170.403 108.054 168.91 107.201C167.416 106.321 166.23 105.147 165.35 103.681C164.496 102.214 164.07 100.587 164.07 98.8008C164.07 96.2408 164.963 93.6541 166.75 91.0408L174.39 80.0808H179.71L171.55 91.5608L169.87 92.5608C170.136 91.9475 170.47 91.4275 170.87 91.0008C171.296 90.5475 171.843 90.2008 172.51 89.9608C173.203 89.7208 174.056 89.6008 175.07 89.6008C176.696 89.6008 178.163 89.9875 179.47 90.7608C180.803 91.5075 181.87 92.5608 182.67 93.9208C183.47 95.2541 183.87 96.8275 183.87 98.6408C183.87 100.454 183.43 102.107 182.55 103.601C181.67 105.094 180.47 106.281 178.95 107.161C177.456 108.041 175.79 108.481 173.95 108.481ZM173.95 104.161C174.963 104.161 175.87 103.921 176.67 103.441C177.47 102.961 178.096 102.307 178.55 101.481C179.03 100.627 179.27 99.6808 179.27 98.6408C179.27 97.6008 179.03 96.6675 178.55 95.8408C178.096 95.0141 177.47 94.3741 176.67 93.9208C175.87 93.4408 174.963 93.2008 173.95 93.2008C172.936 93.2008 172.03 93.4408 171.23 93.9208C170.43 94.4008 169.803 95.0541 169.35 95.8808C168.896 96.6808 168.67 97.6008 168.67 98.6408C168.67 99.6808 168.896 100.627 169.35 101.481C169.803 102.307 170.43 102.961 171.23 103.441C172.03 103.921 172.936 104.161 173.95 104.161Z" fill="black"/>
<defs>
<filter id="filter0_d_25_260" x="0.6" y="0.6" width="429.8" height="238.8" filterUnits="userSpaceOnUse" color-interpolation-filters="sRGB">
<feFlood flood-opacity="0" result="BackgroundImageFix"/>
<feColorMatrix in="SourceAlpha" type="matrix" values="0 0 0 0 0 0 0 0 0 0 0 0 0 0 0 0 0 0 127 0" result="hardAlpha"/>
<feOffset dx="6" dy="6"/>
<feGaussianBlur stdDeviation="7.2"/>
<feComposite in2="hardAlpha" operator="out"/>
<feColorMatrix type="matrix" values="0 0 0 0 0 0 0 0 0 0 0 0 0 0 0 0 0 0 0.25 0"/>
<feBlend mode="normal" in2="BackgroundImageFix" result="effect1_dropShadow_25_260"/>
<feBlend mode="normal" in="SourceGraphic" in2="effect1_dropShadow_25_260" result="shape"/>
</filter>
</defs>
</svg>
