<svg width="39" height="43" viewBox="0 0 39 43" fill="none" xmlns="http://www.w3.org/2000/svg">
<path d="M6.5 42.5C4.69444 42.5 3.15972 41.8802 1.89583 40.6406C0.631944 39.401 0 37.8958 0 36.125V29.75H6.5V0L9.75 3.1875L13 0L16.25 3.1875L19.5 0L22.75 3.1875L26 0L29.25 3.1875L32.5 0L35.75 3.1875L39 0V36.125C39 37.8958 38.3681 39.401 37.1042 40.6406C35.8403 41.8802 34.3056 42.5 32.5 42.5H6.5ZM32.5 38.25C33.1139 38.25 33.6285 38.0464 34.0438 37.6391C34.459 37.2318 34.6667 36.7271 34.6667 36.125V6.375H10.8333V29.75H30.3333V36.125C30.3333 36.7271 30.541 37.2318 30.9563 37.6391C31.3715 38.0464 31.8861 38.25 32.5 38.25ZM13 14.875V10.625H26V14.875H13ZM13 21.25V17H26V21.25H13ZM30.3333 14.875C29.7194 14.875 29.2049 14.6714 28.7896 14.2641C28.3743 13.8568 28.1667 13.3521 28.1667 12.75C28.1667 12.1479 28.3743 11.6432 28.7896 11.2359C29.2049 10.8286 29.7194 10.625 30.3333 10.625C30.9472 10.625 31.4618 10.8286 31.8771 11.2359C32.2924 11.6432 32.5 12.1479 32.5 12.75C32.5 13.3521 32.2924 13.8568 31.8771 14.2641C31.4618 14.6714 30.9472 14.875 30.3333 14.875ZM30.3333 21.25C29.7194 21.25 29.2049 21.0464 28.7896 20.6391C28.3743 20.2318 28.1667 19.7271 28.1667 19.125C28.1667 18.5229 28.3743 18.0182 28.7896 17.6109C29.2049 17.2036 29.7194 17 30.3333 17C30.9472 17 31.4618 17.2036 31.8771 17.6109C32.2924 18.0182 32.5 18.5229 32.5 19.125C32.5 19.7271 32.2924 20.2318 31.8771 20.6391C31.4618 21.0464 30.9472 21.25 30.3333 21.25ZM6.5 38.25H26V34H4.33333V36.125C4.33333 36.7271 4.54097 37.2318 4.95625 37.6391C5.37153 38.0464 5.88611 38.25 6.5 38.25Z" fill="#535353"/>
</svg>
