<svg width="304" height="71" viewBox="0 0 304 71" fill="none" xmlns="http://www.w3.org/2000/svg">
<path d="M43.9213 11.2619L32.6594 0L7.78437e-09 32.6594L11.2619 43.9213L43.9213 11.2619Z" fill="#FF4800"/>
<path d="M43.9213 37.9064L32.6594 26.6445L7.78437e-09 59.3039L11.2619 70.5658L43.9213 37.9064Z" fill="#FFB600"/>
<path d="M68.7219 52.0929C66.2131 52.0929 64.0713 51.6339 62.2968 50.716C60.5222 49.7981 58.9465 48.4672 57.5697 46.7232L60.5069 43.786C61.5166 45.1934 62.6792 46.2643 63.9949 46.9986C65.3105 47.7023 66.9321 48.0542 68.8596 48.0542C70.7566 48.0542 72.2711 47.6411 73.4031 46.815C74.5658 45.9889 75.1471 44.8569 75.1471 43.4189C75.1471 42.2256 74.8717 41.2619 74.321 40.5276C73.7703 39.7932 73.0207 39.1966 72.0722 38.7377C71.1543 38.2481 70.1447 37.8198 69.0432 37.4526C67.9417 37.0549 66.8403 36.6419 65.7388 36.2135C64.6374 35.7546 63.6277 35.2038 62.7098 34.5613C61.7919 33.8882 61.0423 33.0162 60.461 31.9454C59.9103 30.8745 59.6349 29.5283 59.6349 27.9067C59.6349 26.1015 60.0633 24.5717 60.9199 23.3173C61.8072 22.0322 63.0005 21.0532 64.4997 20.3801C66.0295 19.6764 67.7429 19.3245 69.6398 19.3245C71.7203 19.3245 73.5867 19.7375 75.2389 20.5636C76.8911 21.3591 78.2373 22.4147 79.2776 23.7303L76.3403 26.6675C75.3919 25.5661 74.3669 24.74 73.2654 24.1893C72.1946 23.6385 70.9554 23.3632 69.548 23.3632C67.8347 23.3632 66.4731 23.7456 65.4635 24.5105C64.4538 25.2448 63.949 26.2851 63.949 27.6313C63.949 28.7022 64.2243 29.5742 64.775 30.2473C65.3564 30.8898 66.106 31.4405 67.0239 31.8995C67.9417 32.3584 68.9514 32.7868 70.0529 33.1845C71.1849 33.5517 72.3017 33.9647 73.4031 34.4236C74.5046 34.8826 75.5143 35.4639 76.4321 36.1676C77.35 36.8713 78.0843 37.7892 78.6351 38.9213C79.2164 40.0227 79.507 41.4148 79.507 43.0976C79.507 45.9125 78.528 48.1154 76.5698 49.7064C74.6423 51.2974 72.0263 52.0929 68.7219 52.0929ZM90.2907 51.6339L81.6626 29.8342H85.9767L92.2183 46.815H90.8414L97.0371 29.8342H99.4236L105.619 46.815H104.242L110.484 29.8342H114.798L106.216 51.6339H103.784L97.4961 35.1579H99.0106L92.6772 51.6339H90.2907ZM118.157 51.6339V29.8342H122.287V51.6339H118.157ZM120.222 25.4743C119.457 25.4743 118.83 25.2295 118.341 24.74C117.851 24.2199 117.606 23.5773 117.606 22.8124C117.606 22.0781 117.851 21.4662 118.341 20.9767C118.83 20.4566 119.457 20.1965 120.222 20.1965C120.987 20.1965 121.614 20.4566 122.104 20.9767C122.593 21.4662 122.838 22.0781 122.838 22.8124C122.838 23.5773 122.593 24.2199 122.104 24.74C121.614 25.2295 120.987 25.4743 120.222 25.4743ZM131.495 51.6339V26.5758C131.495 24.9542 131.847 23.5468 132.551 22.3535C133.255 21.1297 134.218 20.1659 135.442 19.4622C136.697 18.7585 138.15 18.4066 139.802 18.4066C141.057 18.4066 142.143 18.6208 143.061 19.0491C143.978 19.4775 144.82 20.1047 145.585 20.9308L142.877 23.5926C142.479 23.1643 142.036 22.843 141.546 22.6289C141.057 22.3841 140.46 22.2617 139.756 22.2617C138.441 22.2617 137.416 22.6442 136.681 23.4091C135.978 24.174 135.626 25.2295 135.626 26.5758V51.6339H131.495ZM126.126 33.5976V29.8342H142.556V33.5976H126.126ZM148.756 51.6339V20.7013H152.886V51.6339H148.756ZM143.386 33.5976V29.8342H158.256V33.5976H143.386Z" fill="#FF4800"/>
<path d="M162.761 51.6339V19.5081H168.039V51.6339H162.761ZM189.407 51.6339V38.9213C189.407 37.4526 188.933 36.2441 187.984 35.2956C187.067 34.3472 185.873 33.8729 184.405 33.8729C183.426 33.8729 182.554 34.0871 181.789 34.5154C181.024 34.9438 180.427 35.5404 179.999 36.3053C179.571 37.0702 179.356 37.9422 179.356 38.9213L177.383 37.8198C177.383 36.137 177.75 34.6531 178.484 33.3681C179.219 32.0525 180.228 31.0275 181.513 30.2932C182.829 29.5283 184.298 29.1458 185.919 29.1458C187.571 29.1458 189.04 29.5742 190.325 30.4309C191.61 31.257 192.62 32.3431 193.354 33.6893C194.088 35.005 194.455 36.3818 194.455 37.8198V51.6339H189.407ZM174.308 51.6339V29.6048H179.356V51.6339H174.308ZM207.02 51.6339L196.97 29.6048H202.569L210.233 47.5493H206.929L214.639 29.6048H220.008L209.958 51.6339H207.02ZM232.36 52.0929C230.219 52.0929 228.276 51.588 226.532 50.5783C224.788 49.5381 223.396 48.146 222.355 46.402C221.346 44.658 220.841 42.7152 220.841 40.5734C220.841 38.4317 221.346 36.5042 222.355 34.7908C223.396 33.0774 224.788 31.7159 226.532 30.7062C228.276 29.666 230.219 29.1458 232.36 29.1458C234.533 29.1458 236.491 29.6507 238.235 30.6603C239.979 31.67 241.356 33.0468 242.365 34.7908C243.406 36.5042 243.926 38.4317 243.926 40.5734C243.926 42.7152 243.406 44.658 242.365 46.402C241.356 48.146 239.979 49.5381 238.235 50.5783C236.491 51.588 234.533 52.0929 232.36 52.0929ZM232.36 47.2281C233.615 47.2281 234.716 46.9527 235.665 46.402C236.644 45.8207 237.393 45.0252 237.914 44.0155C238.464 43.0058 238.74 41.8585 238.74 40.5734C238.74 39.2884 238.464 38.1564 237.914 37.1773C237.363 36.1982 236.613 35.4333 235.665 34.8826C234.716 34.3013 233.615 34.0106 232.36 34.0106C231.137 34.0106 230.035 34.3013 229.056 34.8826C228.108 35.4333 227.358 36.1982 226.807 37.1773C226.287 38.1564 226.027 39.2884 226.027 40.5734C226.027 41.8585 226.287 43.0058 226.807 44.0155C227.358 45.0252 228.108 45.8207 229.056 46.402C230.035 46.9527 231.137 47.2281 232.36 47.2281ZM248.17 51.6339V29.6048H253.218V51.6339H248.17ZM250.694 25.5661C249.837 25.5661 249.118 25.2754 248.537 24.6941C247.986 24.1128 247.711 23.3938 247.711 22.5371C247.711 21.6804 247.986 20.9614 248.537 20.3801C249.118 19.7987 249.837 19.5081 250.694 19.5081C251.581 19.5081 252.3 19.7987 252.851 20.3801C253.402 20.9614 253.677 21.6804 253.677 22.5371C253.677 23.3938 253.402 24.1128 252.851 24.6941C252.3 25.2754 251.581 25.5661 250.694 25.5661ZM269.023 52.0929C266.851 52.0929 264.877 51.588 263.103 50.5783C261.359 49.5687 259.982 48.1919 258.972 46.4479C257.962 44.7039 257.458 42.7611 257.458 40.6193C257.458 38.447 257.962 36.5042 258.972 34.7908C259.982 33.0468 261.359 31.67 263.103 30.6603C264.877 29.6507 266.851 29.1458 269.023 29.1458C270.736 29.1458 272.327 29.4824 273.796 30.1555C275.295 30.798 276.565 31.7312 277.605 32.955L274.301 36.3053C273.658 35.5404 272.878 34.9744 271.96 34.6072C271.073 34.2095 270.094 34.0106 269.023 34.0106C267.768 34.0106 266.652 34.3013 265.673 34.8826C264.724 35.4333 263.975 36.1982 263.424 37.1773C262.904 38.1564 262.644 39.3037 262.644 40.6193C262.644 41.9044 262.904 43.0517 263.424 44.0614C263.975 45.0405 264.724 45.8207 265.673 46.402C266.652 46.9527 267.768 47.2281 269.023 47.2281C270.094 47.2281 271.073 47.0445 271.96 46.6774C272.878 46.2796 273.658 45.6983 274.301 44.9334L277.605 48.2836C276.565 49.5075 275.295 50.456 273.796 51.1291C272.327 51.7716 270.736 52.0929 269.023 52.0929ZM291.031 52.0929C288.828 52.0929 286.839 51.6033 285.065 50.6242C283.321 49.6146 281.929 48.2378 280.888 46.4938C279.879 44.7498 279.374 42.7917 279.374 40.6193C279.374 38.447 279.879 36.5042 280.888 34.7908C281.898 33.0468 283.26 31.67 284.973 30.6603C286.717 29.6507 288.644 29.1458 290.756 29.1458C292.805 29.1458 294.611 29.6201 296.171 30.5685C297.762 31.517 299.001 32.8174 299.888 34.4695C300.806 36.1217 301.265 38.0034 301.265 40.1145C301.265 40.4817 301.235 40.8641 301.173 41.2619C301.143 41.629 301.082 42.0421 300.99 42.501H282.908V38.3705H298.374L296.492 40.0227C296.431 38.6765 296.171 37.5444 295.712 36.6266C295.253 35.7087 294.595 35.005 293.739 34.5154C292.913 34.0259 291.888 33.7811 290.664 33.7811C289.379 33.7811 288.262 34.0565 287.313 34.6072C286.365 35.1579 285.631 35.9381 285.111 36.9478C284.59 37.9269 284.33 39.1048 284.33 40.4817C284.33 41.8585 284.606 43.067 285.156 44.1073C285.707 45.1476 286.487 45.9583 287.497 46.5397C288.507 47.0904 289.669 47.3658 290.985 47.3658C292.117 47.3658 293.157 47.1669 294.106 46.7691C295.085 46.3714 295.911 45.7901 296.584 45.0252L299.797 48.2836C298.726 49.5381 297.425 50.4866 295.896 51.1291C294.366 51.7716 292.744 52.0929 291.031 52.0929Z" fill="#FFB600"/>
</svg>
