<svg width="35" height="35" viewBox="0 0 35 35" fill="none" xmlns="http://www.w3.org/2000/svg">
<path d="M26 19.5003L8.34167 19.5003L13.975 25.1337L10.8333 28.167L-7.57664e-07 17.3337L10.8333 6.50033L13.975 9.53366L8.34167 15.167L26 15.167L26 19.5003ZM34.6667 30.3337C34.6667 31.5253 34.2424 32.5455 33.3937 33.3941C32.5451 34.2427 31.525 34.667 30.3333 34.667L23.8333 34.667L23.8333 30.3337L30.3333 30.3337L30.3333 4.33366L23.8333 4.33366L23.8333 0.000323207L30.3333 0.000322923C31.525 0.000322871 32.5451 0.424628 33.3937 1.27324C34.2424 2.12185 34.6667 3.14199 34.6667 4.33366L34.6667 30.3337Z" fill="#1916B9"/>
</svg>
