<svg width="51" height="57" viewBox="0 0 51 57" fill="none" xmlns="http://www.w3.org/2000/svg">
<path d="M0 49.9669V45.2782H4.63636V28.8678C4.63636 25.6247 5.60227 22.7431 7.53409 20.2229C9.46591 17.7028 11.9773 16.0519 15.0682 15.2705V13.6294C15.0682 12.6526 15.4062 11.8223 16.0824 11.1386C16.7585 10.4548 17.5795 10.1129 18.5455 10.1129C19.5114 10.1129 20.3324 10.4548 21.0085 11.1386C21.6847 11.8223 22.0227 12.6526 22.0227 13.6294V15.2705C25.1136 16.0519 27.625 17.7028 29.5568 20.2229C31.4886 22.7431 32.4545 25.6247 32.4545 28.8678V45.2782H37.0909V49.9669H0ZM18.5455 57C17.2705 57 16.179 56.5409 15.271 55.6227C14.3631 54.7045 13.9091 53.6007 13.9091 52.3113H23.1818C23.1818 53.6007 22.7278 54.7045 21.8199 55.6227C20.9119 56.5409 19.8205 57 18.5455 57ZM9.27273 45.2782H27.8182V28.8678C27.8182 26.289 26.9102 24.0814 25.0943 22.245C23.2784 20.4085 21.0955 19.4903 18.5455 19.4903C15.9955 19.4903 13.8125 20.4085 11.9966 22.245C10.1807 24.0814 9.27273 26.289 9.27273 28.8678V45.2782Z" fill="#535353"/>
<path d="M30.1364 30.0806C35.3377 30.0806 39.5909 25.8944 39.5909 20.6854C39.5909 15.4765 35.3377 11.2903 30.1364 11.2903C24.935 11.2903 20.6818 15.4765 20.6818 20.6854C20.6818 25.8944 24.935 30.0806 30.1364 30.0806Z" fill="#FF0000" stroke="#FAFAFA" stroke-width="5"/>
</svg>
