<svg width="47" height="34" viewBox="0 0 47 34" fill="none" xmlns="http://www.w3.org/2000/svg">
<path d="M27.625 19.125C25.8542 19.125 24.349 18.5052 23.1094 17.2656C21.8698 16.026 21.25 14.5208 21.25 12.75C21.25 10.9792 21.8698 9.47396 23.1094 8.23438C24.349 6.99479 25.8542 6.375 27.625 6.375C29.3958 6.375 30.901 6.99479 32.1406 8.23438C33.3802 9.47396 34 10.9792 34 12.75C34 14.5208 33.3802 16.026 32.1406 17.2656C30.901 18.5052 29.3958 19.125 27.625 19.125ZM12.75 25.5C11.5813 25.5 10.5807 25.0839 9.74844 24.2516C8.91615 23.4193 8.5 22.4188 8.5 21.25V4.25C8.5 3.08125 8.91615 2.08073 9.74844 1.24844C10.5807 0.416146 11.5813 0 12.75 0H42.5C43.6688 0 44.6693 0.416146 45.5016 1.24844C46.3339 2.08073 46.75 3.08125 46.75 4.25V21.25C46.75 22.4188 46.3339 23.4193 45.5016 24.2516C44.6693 25.0839 43.6688 25.5 42.5 25.5H12.75ZM17 21.25H38.25C38.25 20.0812 38.6661 19.0807 39.4984 18.2484C40.3307 17.4161 41.3312 17 42.5 17V8.5C41.3312 8.5 40.3307 8.08385 39.4984 7.25156C38.6661 6.41927 38.25 5.41875 38.25 4.25H17C17 5.41875 16.5839 6.41927 15.7516 7.25156C14.9193 8.08385 13.9187 8.5 12.75 8.5V17C13.9187 17 14.9193 17.4161 15.7516 18.2484C16.5839 19.0807 17 20.0812 17 21.25ZM40.375 34H4.25C3.08125 34 2.08073 33.5839 1.24844 32.7516C0.416146 31.9193 0 30.9188 0 29.75V6.375H4.25V29.75H40.375V34Z" fill="#535353"/>
</svg>
