<svg width="44" height="43" viewBox="0 0 44 43" fill="none" xmlns="http://www.w3.org/2000/svg">
<path d="M15.8167 42.5L14.95 35.7C14.4806 35.5229 14.0382 35.3104 13.6229 35.0625C13.2076 34.8146 12.8014 34.549 12.4042 34.2656L5.95833 36.9219L0 26.8281L5.57917 22.6844C5.54306 22.4365 5.525 22.1974 5.525 21.9672V20.5328C5.525 20.3026 5.54306 20.0635 5.57917 19.8156L0 15.6719L5.95833 5.57812L12.4042 8.23438C12.8014 7.95104 13.2167 7.68542 13.65 7.4375C14.0833 7.18958 14.5167 6.97708 14.95 6.8L15.8167 0H27.7333L28.6 6.8C29.0694 6.97708 29.5118 7.18958 29.9271 7.4375C30.3424 7.68542 30.7486 7.95104 31.1458 8.23438L37.5917 5.57812L43.55 15.6719L37.9708 19.8156C38.0069 20.0635 38.025 20.3026 38.025 20.5328V21.9672C38.025 22.1974 37.9889 22.4365 37.9167 22.6844L43.4958 26.8281L37.5375 36.9219L31.1458 34.2656C30.7486 34.549 30.3333 34.8146 29.9 35.0625C29.4667 35.3104 29.0333 35.5229 28.6 35.7L27.7333 42.5H15.8167ZM19.6083 38.25H23.8875L24.6458 32.6188C25.7653 32.3354 26.8035 31.9193 27.7604 31.3703C28.7174 30.8214 29.5931 30.1573 30.3875 29.3781L35.75 31.5563L37.8625 27.9438L33.2042 24.4906C33.3847 23.9948 33.5111 23.4724 33.5833 22.9234C33.6556 22.3745 33.6917 21.8167 33.6917 21.25C33.6917 20.6833 33.6556 20.1255 33.5833 19.5766C33.5111 19.0276 33.3847 18.5052 33.2042 18.0094L37.8625 14.5563L35.75 10.9438L30.3875 13.175C29.5931 12.3604 28.7174 11.6786 27.7604 11.1297C26.8035 10.5807 25.7653 10.1646 24.6458 9.88125L23.9417 4.25H19.6625L18.9042 9.88125C17.7847 10.1646 16.7465 10.5807 15.7896 11.1297C14.8326 11.6786 13.9569 12.3427 13.1625 13.1219L7.8 10.9438L5.6875 14.5563L10.3458 17.9563C10.1653 18.4875 10.0389 19.0188 9.96667 19.55C9.89444 20.0813 9.85833 20.6479 9.85833 21.25C9.85833 21.8167 9.89444 22.3656 9.96667 22.8969C10.0389 23.4281 10.1653 23.9594 10.3458 24.4906L5.6875 27.9438L7.8 31.5563L13.1625 29.325C13.9569 30.1396 14.8326 30.8214 15.7896 31.3703C16.7465 31.9193 17.7847 32.3354 18.9042 32.6188L19.6083 38.25ZM21.8833 28.6875C23.9778 28.6875 25.7653 27.9615 27.2458 26.5094C28.7264 25.0573 29.4667 23.3042 29.4667 21.25C29.4667 19.1958 28.7264 17.4427 27.2458 15.9906C25.7653 14.5385 23.9778 13.8125 21.8833 13.8125C19.7528 13.8125 17.9562 14.5385 16.4937 15.9906C15.0312 17.4427 14.3 19.1958 14.3 21.25C14.3 23.3042 15.0312 25.0573 16.4937 26.5094C17.9562 27.9615 19.7528 28.6875 21.8833 28.6875Z" fill="#535353"/>
</svg>
